<?xml version="1.0" encoding="UTF-8" standalone="no"?>
<svg
   xmlns:dc="http://purl.org/dc/elements/1.1/"
   xmlns:cc="http://creativecommons.org/ns#"
   xmlns:rdf="http://www.w3.org/1999/02/22-rdf-syntax-ns#"
   xmlns:svg="http://www.w3.org/2000/svg"
   xmlns="http://www.w3.org/2000/svg"
   xmlns:sodipodi="http://sodipodi.sourceforge.net/DTD/sodipodi-0.dtd"
   xmlns:inkscape="http://www.inkscape.org/namespaces/inkscape"
   id="svg2985"
   version="1.1"
   inkscape:version="0.48.4 r9939"
   width="443"
   height="362"
   sodipodi:docname="uparrow.svg">
  <sodipodi:namedview
     pagecolor="#ffffff"
     bordercolor="#666666"
     borderopacity="1"
     objecttolerance="10"
     gridtolerance="10"
     guidetolerance="10"
     inkscape:pageopacity="0"
     inkscape:pageshadow="2"
     inkscape:window-width="1920"
     inkscape:window-height="1056"
     id="namedview8"
     showgrid="false"
     inkscape:zoom="0.6519337"
     inkscape:cx="221.5"
     inkscape:cy="181"
     inkscape:window-x="1680"
     inkscape:window-y="24"
     inkscape:window-maximized="1"
     inkscape:current-layer="svg2985" />
  <style
     id="style3">
	.style0{
		fill:	#000000;
	}
  .style0:hover{
    fill: #eeeeee;
  }
</style>
  <metadata
     id="metadata2991">
    <rdf:RDF>
      <cc:Work
         rdf:about="">
        <dc:format>image/svg+xml</dc:format>
        <dc:type
           rdf:resource="http://purl.org/dc/dcmitype/StillImage" />
        <dc:title />
      </cc:Work>
    </rdf:RDF>
  </metadata>
  <defs
     id="defs2989" />
  <path
     d="m 53.4 255.7 -24.2 -24.4 2.3 -2.5 c 1.2 -1.4 2.8 -3 3.6 -3.6 1.7 -1.5 6.7 -6.6 8.2 -8.2 0.6 -0.7 2.2 -2.3 3.5 -3.5 1.3 -1.2 2.9 -2.8 3.5 -3.5 0.6 -0.7 2.2 -2.3 3.5 -3.5 1.3 -1.2 2.9 -2.8 3.5 -3.5 0.6 -0.7 2.2 -2.3 3.5 -3.5 1.3 -1.2 3.3 -3.3 4.5 -4.5 1.2 -1.3 3.3 -3.3 4.5 -4.5 1.3 -1.2 2.8 -2.8 3.5 -3.5 0.6 -0.7 2.2 -2.3 3.5 -3.5 1.3 -1.2 2.9 -2.8 3.5 -3.5 0.6 -0.7 2.2 -2.3 3.5 -3.5 1.3 -1.2 2.9 -2.8 3.5 -3.5 0.6 -0.7 2.2 -2.3 3.5 -3.5 1.3 -1.2 3.3 -3.3 4.5 -4.5 1.2 -1.3 3.3 -3.3 4.5 -4.5 1.3 -1.2 2.8 -2.8 3.5 -3.5 0.6 -0.7 2.2 -2.3 3.5 -3.5 1.3 -1.2 2.9 -2.8 3.5 -3.5 0.6 -0.7 2.2 -2.3 3.5 -3.5 1.3 -1.2 2.9 -2.8 3.5 -3.5 0.6 -0.7 2.2 -2.3 3.5 -3.5 1.3 -1.2 3.3 -3.3 4.5 -4.5 1.2 -1.3 3.3 -3.3 4.5 -4.5 1.3 -1.2 2.8 -2.8 3.5 -3.5 0.6 -0.7 2.2 -2.3 3.5 -3.5 1.3 -1.2 2.9 -2.8 3.5 -3.5 0.6 -0.7 2.2 -2.3 3.5 -3.5 1.3 -1.2 3.3 -3.3 4.5 -4.5 1.2 -1.3 3.3 -3.3 4.5 -4.5 1.3 -1.2 2.8 -2.8 3.5 -3.5 0.6 -0.7 2.2 -2.3 3.5 -3.5 1.3 -1.2 2.9 -2.8 3.5 -3.5 0.6 -0.7 2.2 -2.3 3.5 -3.5 1.3 -1.2 2.9 -2.8 3.5 -3.5 0.6 -0.7 2.2 -2.3 3.5 -3.5 1.3 -1.2 3.3 -3.3 4.5 -4.5 1.2 -1.3 3.3 -3.3 4.5 -4.5 1.3 -1.2 2.8 -2.8 3.5 -3.5 0.6 -0.7 2.2 -2.3 3.5 -3.5 1.3 -1.2 2.9 -2.8 3.5 -3.5 0.6 -0.7 2.2 -2.3 3.5 -3.5 1.3 -1.2 2.9 -2.8 3.5 -3.5 0.6 -0.7 2.2 -2.3 3.5 -3.5 1.3 -1.2 3.3 -3.3 4.5 -4.5 1.2 -1.3 3.3 -3.3 4.5 -4.5 1.3 -1.2 2.8 -2.8 3.5 -3.5 0.6 -0.7 2.3 -2.3 3.6 -3.6 l 2.5 -2.3 95.2 95.2 c 52.4 52.4 95.2 95.4 95.2 95.6 0 0.2 -0.7 1.2 -1.6 2.1 -2 2.2 -20.9 21.1 -22.6 22.7 -0.7 0.6 -2.5 2.4 -3.9 3.8 -1.4 1.5 -2.9 3 -3.3 3.4 -0.4 0.4 -4.5 4.5 -9.1 9.2 -4.6 4.7 -8.7 8.5 -9 8.5 -0.3 0 -32.3 -31.7 -71.1 -70.5 L 221.7 137.8 150.5 209 c -39.1 39.1 -71.6 71.1 -72 71.1 -0.5 -0 -11.8 -11 -25.1 -24.4 l 0 0 z"
     id="path3015"
     inkscape:connector-curvature="0"
     class="style0" />
</svg>
